<?xml version="1.0" ?><!DOCTYPE svg  PUBLIC '-//W3C//DTD SVG 1.0//EN'
        'http://www.w3.org/TR/2001/REC-SVG-20010904/DTD/svg10.dtd'>
<svg enable-background="new 0 0 32 32" height="52px" width="52px" id="Layer_1" version="1.0" viewBox="0 0 32 32"
     xml:space="preserve" xmlns="http://www.w3.org/2000/svg" xmlns:xlink="http://www.w3.org/1999/xlink"><path d="M16,32C7.177,32,0,24.821,0,15.999C0,7.178,7.177,0,16,0c8.822,0,16,7.178,16,15.999  C32,24.821,24.822,32,16,32z M29.493,18.19c-0.467-0.149-4.229-1.27-8.513-0.584c1.788,4.91,2.516,8.911,2.654,9.744  C26.701,25.277,28.884,21.993,29.493,18.19z M21.339,28.601c-0.204-1.199-0.998-5.378-2.916-10.363l-0.091,0.031  C10.625,20.954,7.857,26.3,7.611,26.803C9.928,28.61,12.84,29.688,16,29.688C17.892,29.688,19.697,29.301,21.339,28.601z   M5.847,25.159c0.31-0.53,4.06-6.741,11.109-9.019c0.177-0.06,0.357-0.112,0.537-0.163c-0.343-0.777-0.716-1.554-1.108-2.319  C9.561,15.7,2.938,15.616,2.341,15.603c-0.004,0.14-0.008,0.277-0.008,0.418C2.333,19.53,3.663,22.734,5.847,25.159z M2.622,13.221  c0.61,0.009,6.241,0.034,12.634-1.664c-2.264-4.026-4.706-7.41-5.067-7.903C6.366,5.456,3.508,8.98,2.622,13.221z M12.797,2.733  c0.378,0.505,2.86,3.888,5.099,8c4.861-1.82,6.918-4.586,7.164-4.936C22.646,3.657,19.473,2.354,16,2.354  C14.896,2.354,13.824,2.485,12.797,2.733z M26.578,7.378c-0.288,0.39-2.578,3.325-7.631,5.389c0.318,0.651,0.622,1.312,0.907,1.979  c0.1,0.235,0.198,0.471,0.294,0.706c4.547-0.572,9.065,0.345,9.517,0.438C29.634,12.665,28.481,9.703,26.578,7.378z" fill="#E94C89"/>
    <g/>
    <g/>
    <g/>
    <g/>
    <g/>
    <g/></svg>